<?xml version="1.0" encoding="UTF-8"?>
<!DOCTYPE svg PUBLIC "-//W3C//DTD SVG 1.1//EN" "http://www.w3.org/Graphics/SVG/1.1/DTD/svg11.dtd">
<svg xmlns="http://www.w3.org/2000/svg" version="1.1" width="1024px" height="1024px" style="shape-rendering:geometricPrecision; text-rendering:geometricPrecision; image-rendering:optimizeQuality; fill-rule:evenodd; clip-rule:evenodd" xmlns:xlink="http://www.w3.org/1999/xlink">
<g><path style="opacity:0.979" fill="#fdfe85" d="M 478.5,165.5 C 495.503,165.333 512.503,165.5 529.5,166C 544.837,168.334 560.171,170.667 575.5,173C 591.49,176.664 607.157,181.331 622.5,187C 634.302,192.068 645.969,197.401 657.5,203C 659,204.5 660.5,206 662,207.5C 663.507,206.465 665.007,206.632 666.5,208C 713.822,235.641 752.655,272.808 783,319.5C 783.886,314.53 784.552,309.53 785,304.5C 786.895,298.042 790.728,296.375 796.5,299.5C 797.139,303.95 797.472,308.45 797.5,313C 797.372,320.903 796.872,328.736 796,336.5C 798.87,333.643 800.87,330.31 802,326.5C 803.074,325.382 804.24,324.382 805.5,323.5C 808.356,315.825 811.856,308.492 816,301.5C 819.146,296.841 823.313,295.508 828.5,297.5C 829.456,298.865 830.122,300.365 830.5,302C 828.396,306.645 826.896,311.478 826,316.5C 822.303,322.187 818.636,327.854 815,333.5C 813.459,335.477 812.959,337.477 813.5,339.5C 825.075,335.377 836.075,330.21 846.5,324C 852.954,321.109 859.62,318.776 866.5,317C 877.556,314.796 886.723,317.963 894,326.5C 897.9,338.23 894.734,347.73 884.5,355C 861.31,362.404 837.643,367.571 813.5,370.5C 811.241,370.468 809.075,370.134 807,369.5C 804.65,371.683 802.483,374.016 800.5,376.5C 820.968,431.853 828.801,489.52 824,549.5C 812.748,645.988 768.915,723.155 692.5,781C 687.316,782.863 682.983,785.863 679.5,790C 666.826,797.003 654.159,804.003 641.5,811C 561.727,845.093 480.06,849.759 396.5,825C 378.852,818.449 361.518,811.116 344.5,803C 333.426,795.595 322.092,788.595 310.5,782C 298.662,772.325 286.995,762.492 275.5,752.5C 200.571,674.918 168.071,581.584 178,472.5C 181.808,440.447 188.974,409.28 199.5,379C 194.143,377.204 188.81,376.704 183.5,377.5C 166.527,375.116 149.527,372.949 132.5,371C 129.606,368.091 128.773,364.591 130,360.5C 130.772,359.151 131.939,358.318 133.5,358C 148.793,359.135 164.126,359.801 179.5,360C 167.703,352.931 155.703,346.098 143.5,339.5C 137.23,334.642 131.73,328.976 127,322.5C 120,306.369 122.834,292.535 135.5,281C 146.903,274.947 158.57,274.28 170.5,279C 174.043,283.916 177.21,289.083 180,294.5C 185.876,310.523 191.876,326.19 198,341.5C 199.667,343.833 201.333,346.167 203,348.5C 204.011,347.663 205.178,347.33 206.5,347.5C 204.967,342.092 203.134,336.759 201,331.5C 199.305,318.721 196.972,306.054 194,293.5C 192.004,281.81 196.338,277.81 207,281.5C 208.83,296.643 211.497,311.643 215,326.5C 219.961,319.013 224.794,311.346 229.5,303.5C 280.621,235.011 348.621,191.178 433.5,172C 448.65,169.86 463.65,167.693 478.5,165.5 Z M 185.5,346.5 C 179.632,343.4 173.632,340.566 167.5,338C 162.198,333.019 156.531,328.519 150.5,324.5C 148.358,323.399 146.192,322.399 144,321.5C 142.527,317.221 140.527,313.221 138,309.5C 137.11,305.618 137.61,301.952 139.5,298.5C 143.051,295.775 146.717,293.275 150.5,291C 154.866,290.114 159.033,290.614 163,292.5C 165.43,295.592 167.43,298.925 169,302.5C 171.938,312.648 175.271,322.648 179,332.5C 180.991,336.192 183.158,339.692 185.5,343C 184.829,343.986 184.829,345.153 185.5,346.5 Z M 868.5,329.5 C 872.514,329.334 876.514,329.501 880.5,330C 884.255,333.224 884.255,336.557 880.5,340C 877.222,341.648 874.055,343.481 871,345.5C 870.586,345.043 870.086,344.709 869.5,344.5C 866.029,346.087 862.363,347.254 858.5,348C 847.47,349.476 836.47,350.81 825.5,352C 839.971,344.58 854.305,337.08 868.5,329.5 Z M 237.5,389.5 C 232.439,386.612 228.106,382.779 224.5,378C 225.167,377.333 225.833,377.333 226.5,378C 228.539,380.374 230.872,382.374 233.5,384C 235.439,385.432 236.772,387.265 237.5,389.5 Z M 788.5,384.5 C 789.376,384.369 790.043,384.702 790.5,385.5C 794.009,393.893 796.176,402.56 797,411.5C 777.559,464.674 753.892,515.007 726,562.5C 724.333,563.5 723,564.833 722,566.5C 714.73,579.74 706.73,592.407 698,604.5C 691.256,610.922 685.589,618.255 681,626.5C 679.488,627.257 678.154,628.257 677,629.5C 648.209,665.733 612.376,693.566 569.5,713C 517.174,732.129 466.174,729.129 416.5,704C 369.061,676.557 330.894,639.724 302,593.5C 296.453,587.62 292.12,580.953 289,573.5C 284.177,567.853 279.843,561.853 276,555.5C 274.209,550.365 271.542,545.699 268,541.5C 264.508,533.847 260.508,526.513 256,519.5C 238.7,485.824 223.367,451.49 210,416.5C 209.229,409.254 208.062,402.087 206.5,395C 206.582,391.765 207.082,388.598 208,385.5C 211.923,395.604 216.423,405.437 221.5,415C 221.167,415.333 220.833,415.667 220.5,416C 236.525,443.36 251.692,471.194 266,499.5C 280.333,523.833 294.667,548.167 309,572.5C 326.876,597.706 346.21,621.706 367,644.5C 381.829,657.307 397.329,669.473 413.5,681C 469.808,715.774 527.142,717.107 585.5,685C 613.951,667.565 639.118,646.065 661,620.5C 683.964,591.259 704.964,560.593 724,528.5C 736.612,503.442 749.112,478.275 761.5,453C 761.167,452.667 760.833,452.333 760.5,452C 767.555,436.061 774.721,420.228 782,404.5C 784.268,397.862 786.435,391.195 788.5,384.5 Z M 237.5,389.5 C 238.922,389.709 240.255,390.209 241.5,391C 300.37,442.601 362.037,490.601 426.5,535C 451.069,550.725 476.069,565.725 501.5,580C 494.627,584.24 487.294,585.24 479.5,583C 435.355,562.89 394.689,536.89 357.5,505C 342.916,494.085 329.25,482.085 316.5,469C 312.5,466 308.5,463 304.5,460C 285,440.5 265.5,421 246,401.5C 244.109,397.87 241.442,394.87 238,392.5C 237.517,391.552 237.351,390.552 237.5,389.5 Z M 385.5,614.5 C 384.508,614.328 383.842,614.662 383.5,615.5C 381.139,615.674 378.806,616.007 376.5,616.5C 374.901,616.232 373.568,616.566 372.5,617.5C 366.299,618.715 361.132,617.048 357,612.5C 328.484,574.92 302.817,534.92 280,492.5C 274.888,485.277 270.555,477.611 267,469.5C 254.1,449.071 242.1,427.737 231,405.5C 227.903,402.61 225.903,399.276 225,395.5C 251.447,427.625 280.614,457.792 312.5,486C 321.179,495.345 330.513,504.012 340.5,512C 353.833,522.333 367.167,532.667 380.5,543C 391.48,549.828 402.147,557.161 412.5,565C 429.33,575.138 446.663,584.471 464.5,593C 444.421,600.137 424.088,606.471 403.5,612C 397.513,612.998 391.513,613.832 385.5,614.5 Z M 742.5,395.5 C 745.898,395.18 749.232,395.513 752.5,396.5C 746.633,405.532 739.3,413.032 730.5,419C 697.825,453.716 662.325,484.549 624,511.5C 593.585,534.58 560.585,554.246 525,570.5C 524.667,570.167 524.333,569.833 524,569.5C 520.646,571.532 517.313,573.532 514,575.5C 513.132,571.328 514.632,568.162 518.5,566C 544.846,549.201 570.679,532.368 596,515.5C 645.803,476.538 694.636,436.538 742.5,395.5 Z M 765.5,405.5 C 766.043,405.56 766.376,405.893 766.5,406.5C 753.052,441.159 736.886,475.159 718,508.5C 716.617,511.859 715.284,515.193 714,518.5C 706.043,529.602 699.043,541.268 693,553.5C 688.667,558.157 685.334,563.49 683,569.5C 677.198,575.962 672.198,582.962 668,590.5C 664.839,594.227 661.505,597.894 658,601.5C 654.188,608.328 649.188,614.328 643,619.5C 642.333,620.833 641.667,622.167 641,623.5C 632.704,631.323 624.538,639.156 616.5,647C 590.748,669.036 561.748,684.37 529.5,693C 507.509,696.316 485.509,695.316 463.5,690C 429.546,678.112 400.213,658.779 375.5,632C 413.627,625.967 450.794,615.8 487,601.5C 487.414,601.957 487.914,602.291 488.5,602.5C 522.319,589.756 554.986,574.59 586.5,557C 620.073,534.662 652.24,511.162 683,486.5C 693.924,475.974 705.091,465.807 716.5,456C 733.317,439.682 749.65,422.849 765.5,405.5 Z"/></g>
<g><path style="opacity:0.984" fill="#767657" d="M 385.5,614.5 C 385.289,616.424 384.623,616.757 383.5,615.5C 383.842,614.662 384.508,614.328 385.5,614.5 Z"/></g>
<g><path style="opacity:1" fill="#8d8c5d" d="M 376.5,616.5 C 376.38,617.586 375.713,618.253 374.5,618.5C 373.584,618.457 372.917,618.124 372.5,617.5C 373.568,616.566 374.901,616.232 376.5,616.5 Z"/></g>
</svg>
