<?xml version="1.0" encoding="UTF-8"?>
<!DOCTYPE svg PUBLIC "-//W3C//DTD SVG 1.1//EN" "http://www.w3.org/Graphics/SVG/1.1/DTD/svg11.dtd">
<svg xmlns="http://www.w3.org/2000/svg" version="1.1" width="1024px" height="1024px" style="shape-rendering:geometricPrecision; text-rendering:geometricPrecision; image-rendering:optimizeQuality; fill-rule:evenodd; clip-rule:evenodd" xmlns:xlink="http://www.w3.org/1999/xlink">
<g><path style="opacity:0.999" fill="#000000" d="M 481.5,50.5 C 600.092,45.4405 700.592,84.7739 783,168.5C 787.562,175.069 792.895,181.069 799,186.5C 808.555,199.055 817.721,211.888 826.5,225C 826.833,225.167 827.167,225.333 827.5,225.5C 828.859,219.919 829.692,214.252 830,208.5C 831.526,201.621 835.359,199.621 841.5,202.5C 843.05,206.309 843.716,210.309 843.5,214.5C 842.496,225.186 841.663,235.852 841,246.5C 845.798,241.711 849.798,236.377 853,230.5C 856.929,221.588 861.262,212.922 866,204.5C 869.146,199.841 873.313,198.508 878.5,200.5C 879.456,201.865 880.122,203.365 880.5,205C 877.92,213.073 874.753,220.907 871,228.5C 866.33,235.169 862.163,242.169 858.5,249.5C 874.168,244.181 889.502,237.348 904.5,229C 914.642,224.06 925.309,222.06 936.5,223C 954.62,228.065 959.453,238.898 951,255.5C 948.5,259.333 945.333,262.5 941.5,265C 929.107,268.181 916.773,271.515 904.5,275C 887.658,278.529 870.658,280.863 853.5,282C 851.241,283.715 849.074,285.548 847,287.5C 847.009,291.554 847.676,295.554 849,299.5C 877.299,378.587 882.299,458.92 864,540.5C 836.294,643.891 776.128,721.724 683.5,774C 594.868,818.217 502.201,828.217 405.5,804C 315.434,777.848 245.267,725.681 195,647.5C 151.548,575.011 132.881,496.344 139,411.5C 142.685,370.473 151.185,330.806 164.5,292.5C 160.115,291.055 155.615,290.055 151,289.5C 150,289.833 149,290.167 148,290.5C 127.753,287.223 107.586,284.723 87.5,283C 86.6667,282.167 85.8333,281.333 85,280.5C 84.4213,276.797 84.588,273.131 85.5,269.5C 88.6332,268.989 91.7999,268.656 95,268.5C 110.714,270.173 126.38,271.84 142,273.5C 142.692,272.975 143.192,272.308 143.5,271.5C 127.252,262.705 111.252,253.372 95.5,243.5C 91.8561,239.355 88.0227,235.355 84,231.5C 74.0524,214.431 75.5524,198.598 88.5,184C 101.283,175.413 114.95,173.746 129.5,179C 135.176,186.518 139.676,194.684 143,203.5C 149.193,219.077 155.193,234.744 161,250.5C 162.5,252.833 164,255.167 165.5,257.5C 167.416,258.248 169.416,258.248 171.5,257.5C 165.896,236.412 161.229,215.079 157.5,193.5C 156.164,183.829 160.498,179.162 170.5,179.5C 173.461,197.894 176.795,216.227 180.5,234.5C 250.198,124.104 350.531,62.771 481.5,50.5 Z M 110.5,190.5 C 117.052,190.202 122.219,192.868 126,198.5C 131.753,215.347 138.086,232.014 145,248.5C 148.232,251.262 149.399,254.595 148.5,258.5C 142.078,253.622 135.078,249.789 127.5,247C 118.23,239.788 108.73,232.955 99,226.5C 97.186,222.047 95.186,217.714 93,213.5C 92.0534,208.96 92.5534,204.626 94.5,200.5C 99.1452,195.813 104.479,192.48 110.5,190.5 Z M 932.5,234.5 C 944.676,237.723 945.676,243.223 935.5,251C 928.308,253.961 920.975,256.294 913.5,258C 901.784,259.111 890.118,260.611 878.5,262.5C 877.167,262.167 875.833,261.833 874.5,261.5C 889.149,254.51 903.482,247.01 917.5,239C 922.324,236.46 927.324,234.96 932.5,234.5 Z M 191.5,290.5 C 194.14,290.954 196.473,292.121 198.5,294C 268.051,355.916 341.051,413.249 417.5,466C 446.671,484.422 476.337,502.089 506.5,519C 507.517,520.049 507.684,521.216 507,522.5C 495.8,527.889 484.633,527.723 473.5,522C 461.71,515.623 449.71,509.623 437.5,504C 419.167,492.333 400.833,480.667 382.5,469C 318.426,420.277 259.259,365.777 205,305.5C 199.216,301.555 194.716,296.555 191.5,290.5 Z M 172.5,296.5 C 180.875,317.255 190.375,337.588 201,357.5C 214.735,381.58 228.068,405.913 241,430.5C 257,457.833 273,485.167 289,512.5C 312.224,545.732 338.39,576.566 367.5,605C 388.596,623.079 411.596,638.412 436.5,651C 471.947,666.474 508.613,670.141 546.5,662C 583.722,651.894 616.722,634.227 645.5,609C 652.5,602.667 659.5,596.333 666.5,590C 704.439,548.055 736.939,502.222 764,452.5C 790.293,402.586 813.293,351.253 833,298.5C 834.011,297.663 835.178,297.33 836.5,297.5C 838.705,305.58 841.205,313.58 844,321.5C 844.667,324.5 844.667,327.5 844,330.5C 816.316,407.067 779.649,478.734 734,545.5C 729.98,550.247 725.98,554.914 722,559.5C 717.701,566.457 712.701,572.79 707,578.5C 693.14,596.36 677.306,612.194 659.5,626C 624.014,658.41 582.347,678.41 534.5,686C 502.382,689.922 471.049,686.588 440.5,676C 429.97,672.048 419.637,667.715 409.5,663C 396.21,654.398 382.877,645.731 369.5,637C 361.142,629.97 352.808,622.97 344.5,616C 324.292,595.787 305.459,574.287 288,551.5C 282.825,543.149 277.158,535.149 271,527.5C 260.692,510.899 250.359,494.232 240,477.5C 223.164,445.495 207.164,413.162 192,380.5C 187.126,365.211 181.459,350.211 175,335.5C 173.017,327.238 171.517,318.905 170.5,310.5C 170.528,305.727 171.195,301.061 172.5,296.5 Z M 191.5,309.5 C 255.045,385.231 327.711,450.398 409.5,505C 428.44,516.638 448.107,526.971 468.5,536C 433.374,548.781 397.374,558.115 360.5,564C 355.713,564.879 351.047,564.545 346.5,563C 343.117,559.072 339.617,555.239 336,551.5C 327.333,539.5 318.667,527.5 310,515.5C 270.648,452.812 233.314,388.812 198,323.5C 195.369,319.735 192.869,315.902 190.5,312C 190.743,311.098 191.077,310.265 191.5,309.5 Z M 780.5,310.5 C 784.846,310.334 789.179,310.501 793.5,311C 793.957,311.414 794.291,311.914 794.5,312.5C 760.017,349.529 723.35,384.029 684.5,416C 635.184,456.594 581.184,489.927 522.5,516C 521.167,516.667 519.833,516.667 518.5,516C 519.249,514.266 519.749,512.433 520,510.5C 524.221,506.311 528.721,502.478 533.5,499C 555.5,485 577.5,471 599.5,457C 661.47,410.198 721.803,361.364 780.5,310.5 Z M 809.5,319.5 C 810.097,319.735 810.43,320.235 810.5,321C 783.611,387.945 750.778,451.779 712,512.5C 701.807,527.049 691.141,541.382 680,555.5C 674.949,559.884 670.616,564.884 667,570.5C 657.371,579.656 647.871,588.822 638.5,598C 548.389,673.256 459.722,671.256 372.5,592C 368.806,588.107 365.473,583.94 362.5,579.5C 451.039,564.268 534.039,534.101 611.5,489C 644.01,466.824 675.677,443.491 706.5,419C 742.301,387.366 776.634,354.199 809.5,319.5 Z"/></g>
</svg>
